<?xml version="1.0" standalone="no"?>
<!DOCTYPE svg PUBLIC "-//W3C//DTD SVG 20010904//EN"
 "http://www.w3.org/TR/2001/REC-SVG-20010904/DTD/svg10.dtd">
<svg version="1.0" xmlns="http://www.w3.org/2000/svg"
 width="512.000000pt" height="512.000000pt" viewBox="0 0 512.000000 512.000000"
 preserveAspectRatio="xMidYMid meet">

<g transform="translate(0.000000,512.000000) scale(0.100000,-0.100000)"
fill="#000000" stroke="none">
<path d="M4191 5073 c-52 -26 -109 -62 -128 -80 -32 -30 -35 -36 -31 -81 l3
-50 -90 -49 c-49 -28 -498 -276 -997 -552 l-907 -502 -31 22 c-23 17 -44 23
-83 23 -50 0 -81 -16 -727 -374 -371 -205 -698 -388 -726 -406 -66 -41 -92
-85 -112 -185 l-16 -81 -62 7 c-88 9 -139 -7 -195 -64 -88 -87 -91 -201 -10
-292 24 -27 78 -62 165 -107 l129 -67 32 -101 c18 -55 51 -136 72 -180 29 -57
46 -111 62 -194 12 -63 29 -134 37 -157 22 -62 78 -106 171 -137 96 -32 154
-67 210 -128 110 -120 148 -280 173 -728 12 -204 -5 -177 166 -275 279 -160
602 -268 944 -317 102 -14 545 -18 593 -5 23 6 27 12 27 45 0 20 -63 312 -141
647 -155 671 -155 673 -104 760 14 24 40 55 58 68 17 13 249 144 515 291 507
281 527 295 538 368 3 18 -13 147 -35 285 -58 356 -55 433 21 593 32 67 56
100 117 160 65 64 102 90 256 174 225 125 271 153 316 200 95 98 124 249 76
397 l-24 76 186 103 c102 56 188 104 189 106 2 1 -13 33 -34 70 -35 63 -37 68
-20 78 94 56 119 88 120 153 1 42 -10 68 -89 211 -97 176 -120 202 -189 209
-39 5 -74 -6 -148 -45 -4 -2 -21 21 -37 51 -68 119 -107 129 -240 60z m-890
-2382 c87 -33 132 -78 186 -188 45 -90 48 -100 48 -177 0 -91 -11 -120 -73
-188 -52 -57 -119 -105 -273 -194 -179 -103 -369 -198 -449 -224 -192 -62
-321 -23 -427 131 l-48 71 0 93 c0 51 3 96 7 100 3 3 28 -9 55 -28 177 -124
437 -131 775 -20 76 25 149 54 163 65 31 24 33 70 5 98 -24 24 -44 25 -98 6
-189 -67 -391 -22 -514 113 -29 33 -64 78 -76 100 l-23 41 83 54 c135 87 245
136 368 162 89 18 220 12 291 -15z"/>
</g>
</svg>
